<mxfile host="Electron" agent="Mozilla/5.0 (Windows NT 10.0; Win64; x64) AppleWebKit/537.36 (KHTML, like Gecko) draw.io/24.7.8 Chrome/128.0.6613.36 Electron/32.0.1 Safari/537.36" version="24.7.8">
  <diagram name="Pagina-1" id="cW9Y8s9JfGk05K29dQuO">
    <mxGraphModel dx="875" dy="1693" grid="1" gridSize="10" guides="1" tooltips="1" connect="1" arrows="1" fold="1" page="1" pageScale="1" pageWidth="827" pageHeight="1169" math="0" shadow="0">
      <root>
        <mxCell id="0" />
        <mxCell id="1" parent="0" />
        <mxCell id="0n1MjsVZOhJ_JY2lPPmX-4" value="" style="edgeStyle=orthogonalEdgeStyle;rounded=0;orthogonalLoop=1;jettySize=auto;html=1;" edge="1" parent="1" source="0n1MjsVZOhJ_JY2lPPmX-1" target="0n1MjsVZOhJ_JY2lPPmX-2">
          <mxGeometry relative="1" as="geometry">
            <Array as="points">
              <mxPoint x="414" y="-520" />
            </Array>
          </mxGeometry>
        </mxCell>
        <mxCell id="0n1MjsVZOhJ_JY2lPPmX-7" style="edgeStyle=orthogonalEdgeStyle;rounded=0;orthogonalLoop=1;jettySize=auto;html=1;entryX=0;entryY=0.5;entryDx=0;entryDy=0;" edge="1" parent="1" source="0n1MjsVZOhJ_JY2lPPmX-1" target="0n1MjsVZOhJ_JY2lPPmX-5">
          <mxGeometry relative="1" as="geometry">
            <mxPoint x="414" y="-450" as="targetPoint" />
            <Array as="points">
              <mxPoint x="410" y="-460" />
            </Array>
          </mxGeometry>
        </mxCell>
        <mxCell id="0n1MjsVZOhJ_JY2lPPmX-11" style="edgeStyle=orthogonalEdgeStyle;rounded=0;orthogonalLoop=1;jettySize=auto;html=1;entryX=0;entryY=0.5;entryDx=0;entryDy=0;" edge="1" parent="1" source="0n1MjsVZOhJ_JY2lPPmX-1" target="0n1MjsVZOhJ_JY2lPPmX-9">
          <mxGeometry relative="1" as="geometry">
            <Array as="points">
              <mxPoint x="410" y="-400" />
            </Array>
          </mxGeometry>
        </mxCell>
        <mxCell id="0n1MjsVZOhJ_JY2lPPmX-19" style="edgeStyle=orthogonalEdgeStyle;rounded=0;orthogonalLoop=1;jettySize=auto;html=1;entryX=0;entryY=0.5;entryDx=0;entryDy=0;" edge="1" parent="1" source="0n1MjsVZOhJ_JY2lPPmX-1" target="0n1MjsVZOhJ_JY2lPPmX-18">
          <mxGeometry relative="1" as="geometry" />
        </mxCell>
        <mxCell id="0n1MjsVZOhJ_JY2lPPmX-1" value="Persona" style="rounded=0;whiteSpace=wrap;html=1;" vertex="1" parent="1">
          <mxGeometry x="354" y="-590" width="120" height="30" as="geometry" />
        </mxCell>
        <mxCell id="0n1MjsVZOhJ_JY2lPPmX-2" value="" style="ellipse;whiteSpace=wrap;html=1;aspect=fixed;fillColor=#f5f5f5;fontColor=#333333;strokeColor=#666666;" vertex="1" parent="1">
          <mxGeometry x="430" y="-540" width="40" height="40" as="geometry" />
        </mxCell>
        <mxCell id="0n1MjsVZOhJ_JY2lPPmX-3" value="Nome" style="text;html=1;align=center;verticalAlign=middle;resizable=0;points=[];autosize=1;strokeColor=none;fillColor=none;" vertex="1" parent="1">
          <mxGeometry x="470" y="-535" width="60" height="30" as="geometry" />
        </mxCell>
        <mxCell id="0n1MjsVZOhJ_JY2lPPmX-5" value="" style="ellipse;whiteSpace=wrap;html=1;aspect=fixed;fillColor=#f5f5f5;fontColor=#333333;strokeColor=#666666;" vertex="1" parent="1">
          <mxGeometry x="430" y="-480" width="40" height="40" as="geometry" />
        </mxCell>
        <mxCell id="0n1MjsVZOhJ_JY2lPPmX-6" value="Cognome" style="text;html=1;align=center;verticalAlign=middle;resizable=0;points=[];autosize=1;strokeColor=none;fillColor=none;" vertex="1" parent="1">
          <mxGeometry x="460" y="-475" width="80" height="30" as="geometry" />
        </mxCell>
        <mxCell id="0n1MjsVZOhJ_JY2lPPmX-8" value="Telefono" style="text;html=1;align=center;verticalAlign=middle;resizable=0;points=[];autosize=1;strokeColor=none;fillColor=none;" vertex="1" parent="1">
          <mxGeometry x="465" y="-415" width="70" height="30" as="geometry" />
        </mxCell>
        <mxCell id="0n1MjsVZOhJ_JY2lPPmX-9" value="" style="ellipse;whiteSpace=wrap;html=1;aspect=fixed;fillColor=#f5f5f5;fontColor=#333333;strokeColor=#666666;" vertex="1" parent="1">
          <mxGeometry x="430" y="-420" width="40" height="40" as="geometry" />
        </mxCell>
        <mxCell id="0n1MjsVZOhJ_JY2lPPmX-12" value="" style="endArrow=none;html=1;rounded=0;" edge="1" parent="1">
          <mxGeometry width="50" height="50" relative="1" as="geometry">
            <mxPoint x="413.71" y="-380" as="sourcePoint" />
            <mxPoint x="413.71" y="-420" as="targetPoint" />
          </mxGeometry>
        </mxCell>
        <mxCell id="0n1MjsVZOhJ_JY2lPPmX-13" value="&lt;font style=&quot;font-size: 9px;&quot;&gt;| indica che può essere null&lt;/font&gt;" style="text;html=1;align=center;verticalAlign=middle;resizable=0;points=[];autosize=1;strokeColor=none;fillColor=none;" vertex="1" parent="1">
          <mxGeometry x="535" y="-415" width="130" height="30" as="geometry" />
        </mxCell>
        <mxCell id="0n1MjsVZOhJ_JY2lPPmX-14" value="" style="ellipse;whiteSpace=wrap;html=1;aspect=fixed;" vertex="1" parent="1">
          <mxGeometry x="430" y="-370" width="40" height="40" as="geometry" />
        </mxCell>
        <mxCell id="0n1MjsVZOhJ_JY2lPPmX-15" value="Cod Fis" style="text;html=1;align=center;verticalAlign=middle;resizable=0;points=[];autosize=1;strokeColor=none;fillColor=none;" vertex="1" parent="1">
          <mxGeometry x="470" y="-365" width="60" height="30" as="geometry" />
        </mxCell>
        <mxCell id="0n1MjsVZOhJ_JY2lPPmX-16" style="edgeStyle=orthogonalEdgeStyle;rounded=0;orthogonalLoop=1;jettySize=auto;html=1;entryX=-0.002;entryY=0.647;entryDx=0;entryDy=0;entryPerimeter=0;" edge="1" parent="1" source="0n1MjsVZOhJ_JY2lPPmX-1" target="0n1MjsVZOhJ_JY2lPPmX-14">
          <mxGeometry relative="1" as="geometry">
            <Array as="points">
              <mxPoint x="410" y="-344" />
            </Array>
          </mxGeometry>
        </mxCell>
        <mxCell id="0n1MjsVZOhJ_JY2lPPmX-17" value="&lt;font style=&quot;font-size: 9px;&quot;&gt;il pallino nero indica che il campo è univoco&lt;/font&gt;" style="text;html=1;align=center;verticalAlign=middle;resizable=0;points=[];autosize=1;strokeColor=none;fillColor=none;" vertex="1" parent="1">
          <mxGeometry x="535" y="-365" width="200" height="30" as="geometry" />
        </mxCell>
        <mxCell id="0n1MjsVZOhJ_JY2lPPmX-30" style="edgeStyle=orthogonalEdgeStyle;rounded=0;orthogonalLoop=1;jettySize=auto;html=1;entryX=0;entryY=0.5;entryDx=0;entryDy=0;" edge="1" parent="1" source="0n1MjsVZOhJ_JY2lPPmX-18" target="0n1MjsVZOhJ_JY2lPPmX-24">
          <mxGeometry relative="1" as="geometry" />
        </mxCell>
        <mxCell id="0n1MjsVZOhJ_JY2lPPmX-31" style="edgeStyle=orthogonalEdgeStyle;rounded=0;orthogonalLoop=1;jettySize=auto;html=1;entryX=0;entryY=0.5;entryDx=0;entryDy=0;" edge="1" parent="1" source="0n1MjsVZOhJ_JY2lPPmX-18" target="0n1MjsVZOhJ_JY2lPPmX-23">
          <mxGeometry relative="1" as="geometry" />
        </mxCell>
        <mxCell id="0n1MjsVZOhJ_JY2lPPmX-18" value="" style="whiteSpace=wrap;html=1;aspect=fixed;fillColor=#f5f5f5;fontColor=#333333;strokeColor=#666666;" vertex="1" parent="1">
          <mxGeometry x="430" y="-310" width="40" height="40" as="geometry" />
        </mxCell>
        <mxCell id="0n1MjsVZOhJ_JY2lPPmX-20" value="" style="ellipse;whiteSpace=wrap;html=1;aspect=fixed;fillColor=#f5f5f5;fontColor=#333333;strokeColor=#666666;" vertex="1" parent="1">
          <mxGeometry x="470" y="-250" width="40" height="40" as="geometry" />
        </mxCell>
        <mxCell id="0n1MjsVZOhJ_JY2lPPmX-21" value="Via" style="text;html=1;align=center;verticalAlign=middle;resizable=0;points=[];autosize=1;strokeColor=none;fillColor=none;" vertex="1" parent="1">
          <mxGeometry x="520" y="-245" width="40" height="30" as="geometry" />
        </mxCell>
        <mxCell id="0n1MjsVZOhJ_JY2lPPmX-22" value="Citta" style="text;html=1;align=center;verticalAlign=middle;resizable=0;points=[];autosize=1;strokeColor=none;fillColor=none;" vertex="1" parent="1">
          <mxGeometry x="515" y="-185" width="50" height="30" as="geometry" />
        </mxCell>
        <mxCell id="0n1MjsVZOhJ_JY2lPPmX-23" value="" style="ellipse;whiteSpace=wrap;html=1;aspect=fixed;fillColor=#f5f5f5;fontColor=#333333;strokeColor=#666666;" vertex="1" parent="1">
          <mxGeometry x="470" y="-190" width="40" height="40" as="geometry" />
        </mxCell>
        <mxCell id="0n1MjsVZOhJ_JY2lPPmX-24" value="" style="ellipse;whiteSpace=wrap;html=1;aspect=fixed;fillColor=#f5f5f5;fontColor=#333333;strokeColor=#666666;" vertex="1" parent="1">
          <mxGeometry x="470" y="-130" width="40" height="40" as="geometry" />
        </mxCell>
        <mxCell id="0n1MjsVZOhJ_JY2lPPmX-25" value="Provincia" style="text;html=1;align=center;verticalAlign=middle;resizable=0;points=[];autosize=1;strokeColor=none;fillColor=none;" vertex="1" parent="1">
          <mxGeometry x="505" y="-125" width="70" height="30" as="geometry" />
        </mxCell>
        <mxCell id="0n1MjsVZOhJ_JY2lPPmX-26" value="" style="ellipse;whiteSpace=wrap;html=1;aspect=fixed;fillColor=#f5f5f5;fontColor=#333333;strokeColor=#666666;" vertex="1" parent="1">
          <mxGeometry x="470" y="-80" width="40" height="40" as="geometry" />
        </mxCell>
        <mxCell id="0n1MjsVZOhJ_JY2lPPmX-27" value="CAP" style="text;html=1;align=center;verticalAlign=middle;resizable=0;points=[];autosize=1;strokeColor=none;fillColor=none;" vertex="1" parent="1">
          <mxGeometry x="515" y="-75" width="50" height="30" as="geometry" />
        </mxCell>
        <mxCell id="0n1MjsVZOhJ_JY2lPPmX-28" style="edgeStyle=orthogonalEdgeStyle;rounded=0;orthogonalLoop=1;jettySize=auto;html=1;entryX=0.021;entryY=0.647;entryDx=0;entryDy=0;entryPerimeter=0;" edge="1" parent="1" source="0n1MjsVZOhJ_JY2lPPmX-18" target="0n1MjsVZOhJ_JY2lPPmX-20">
          <mxGeometry relative="1" as="geometry" />
        </mxCell>
        <mxCell id="0n1MjsVZOhJ_JY2lPPmX-29" style="edgeStyle=orthogonalEdgeStyle;rounded=0;orthogonalLoop=1;jettySize=auto;html=1;entryX=-0.001;entryY=0.62;entryDx=0;entryDy=0;entryPerimeter=0;" edge="1" parent="1" source="0n1MjsVZOhJ_JY2lPPmX-18" target="0n1MjsVZOhJ_JY2lPPmX-26">
          <mxGeometry relative="1" as="geometry" />
        </mxCell>
      </root>
    </mxGraphModel>
  </diagram>
</mxfile>
